<svg width="69" height="56" viewBox="0 0 69 56" fill="none" xmlns="http://www.w3.org/2000/svg">
<path d="M13.7482 16.1899H11.854V18.0412H9.95984V16.1899H7.82123V18.0412H5.92702V16.1899H3.78841V18.0412H1.8942V16.1899H0V19.8327H13.7482V16.1899Z" fill="#2F80ED"/>
<path d="M68.7413 16.3071H66.9291V18.1516H65.0864V16.3071H63.006V18.1516H61.1633V16.3071H59.0828V18.1516H57.2401V16.3071H55.3975V19.9365H68.7413V16.3071Z" fill="#2F80ED"/>
<path fill-rule="evenodd" clip-rule="evenodd" d="M52.8936 25.226H55.8063V21.0276H68.3368V49.8584H64.3659H55.8063H13.2461H3.20046H0.404297V21.0016H13.3438V25.226H16.1587V14.3972H41.2431V25.226H45.939L46.0579 24.6905C46.0579 24.6905 47.6628 19.3356 47.8411 18.9191C47.8699 18.8184 47.9091 18.7246 47.9503 18.6259C48.0795 18.3169 48.2284 17.9604 48.1383 17.1937C48.0918 16.8677 48.0453 16.4598 47.9988 16.0518C47.9264 15.4173 47.854 14.7827 47.7817 14.4567C47.7817 14.4361 47.6669 14.279 47.5072 14.0604C47.207 13.6495 46.748 13.0213 46.5928 12.6718V12.6123C46.4947 12.514 46.4145 12.4158 46.3425 12.3274C46.2836 12.2553 46.2302 12.1898 46.1767 12.1363C46.147 12.1066 46.1173 12.0619 46.0876 12.0173C46.0579 11.9727 46.0281 11.9281 45.9984 11.8983L46.1767 12.4338L45.939 12.6123L45.1068 10.7083C45.0567 10.7083 45.0066 10.6237 44.8852 10.4189C44.8626 10.3808 44.8376 10.3385 44.8096 10.2918C44.7501 10.2323 44.7501 10.1133 44.8096 9.99435L40.9459 0.950558C40.9459 0.950558 41.0053 0.950558 41.1837 0.89106L41.3025 0.712564C41.3025 0.712564 41.8375 0.296074 43.4424 0.47457C45.0473 0.653065 45.7607 0.653065 46.5928 0.355572C47.3656 0.0580792 48.9111 -0.239414 50.3971 0.296074C51.8831 0.772063 53.4286 2.79502 53.4286 2.79502L51.6454 5.88894C51.6299 5.88894 51.5824 5.84074 51.5027 5.75998C51.2758 5.52995 50.7884 5.03582 50.0404 4.63947C48.9705 4.10399 47.4845 4.28248 46.474 5.53195C45.5229 6.60293 44.5718 6.84092 44.2152 6.78142C44.117 6.78142 44.0188 6.76339 43.9306 6.74718C43.8585 6.73395 43.7931 6.72192 43.7396 6.72192L44.9285 9.63736C44.9879 9.57786 45.1068 9.57786 45.1662 9.69686C45.337 10.0046 45.3704 10.2731 45.3905 10.4344C45.4053 10.5539 45.4129 10.6146 45.4634 10.5893C45.4634 10.5893 45.939 11.0058 46.1767 11.1843C46.2677 11.2526 46.4631 11.4603 46.683 11.694C47.0379 12.0711 47.4565 12.5161 47.6033 12.5528C47.8411 12.6123 48.495 13.1478 48.495 13.1478C48.495 13.1478 48.5544 13.1478 48.6138 13.2073V13.0288C48.6138 13.0288 48.3166 12.9098 48.3166 12.3743C48.3166 11.8388 48.495 11.4223 49.1488 11.4223C49.7432 11.4223 49.9216 12.1363 49.8621 12.4338C49.8027 12.7313 49.7432 13.0288 49.6244 13.0883C49.5055 13.1478 49.446 13.2668 49.446 13.2668V13.4453C49.446 13.4453 49.5649 13.7428 49.8027 13.8023C49.8621 13.8618 49.8621 13.8618 49.9216 13.8618L49.9383 13.8655C50.4578 13.9809 50.5191 13.9945 50.8132 15.2897C51.0197 16.0819 51.1863 16.5551 51.3015 16.8824C51.3854 17.1205 51.442 17.2813 51.467 17.4317C51.5265 17.7887 51.6454 18.8596 51.467 18.9786C51.2887 19.0381 51.2887 19.2166 51.2887 19.2166C51.2887 19.2166 51.7048 22.8461 51.7643 23.2625C51.8237 23.679 51.9426 24.4525 51.9426 24.4525C51.9426 24.4525 52.4181 25.107 52.5964 25.107C52.6559 25.107 52.7747 25.1665 52.8936 25.226L52.8936 25.226ZM46.5928 24.75C46.5928 24.75 46.6523 25.0475 46.7117 25.226H50.9321C50.9321 25.1962 50.9469 25.1516 50.9618 25.107C50.9767 25.0624 50.9915 25.0178 50.9915 24.988C51.1104 24.631 51.2293 24.5715 51.2293 24.5715L50.8132 24.631C50.8132 24.631 50.1593 20.8231 49.981 20.2281C49.8027 19.6331 49.446 18.7406 49.0299 19.4546C48.6138 20.1686 46.9495 24.631 46.9495 24.631L46.7117 24.6905L46.5928 24.75ZM53.2479 31.0568C52.7723 30.8783 52.1779 30.7593 51.5241 30.7593C50.7513 30.7593 50.1569 30.9378 49.6814 31.1758C49.2058 31.4138 48.7898 31.7113 48.4926 32.1278C48.1953 32.4848 47.9576 33.0203 47.8387 33.4963C47.7198 33.9723 47.6604 34.5673 47.6604 35.1622V43.2541C47.6604 44.5035 47.9576 45.515 48.6114 46.1695C49.2058 46.824 50.2164 47.181 51.5241 47.181C52.7723 47.181 53.664 46.824 54.3178 46.11C54.9717 45.396 55.2689 44.444 55.3283 43.2541L54.0801 43.0756L52.8318 42.8971C52.8318 44.206 52.3563 44.8605 51.4646 44.8605C51.2269 44.8605 50.9891 44.801 50.8108 44.682C50.6324 44.563 50.4541 44.444 50.3947 44.2655L50.2164 43.73C50.1569 43.492 50.1569 43.373 50.1569 43.1945V35.0432C50.1569 34.9157 50.174 34.7882 50.1898 34.6698L50.1898 34.6698C50.2036 34.5673 50.2164 34.4716 50.2164 34.3888C50.2164 34.2103 50.2758 33.9723 50.3947 33.7938C50.5136 33.6153 50.6324 33.4368 50.8108 33.3178C50.9891 33.1988 51.2269 33.1393 51.5241 33.1393C51.9996 33.1393 52.3563 33.3178 52.594 33.6748C52.8318 34.0318 52.9507 34.5078 52.9507 35.1027L55.3878 34.5078C55.3878 33.9723 55.2689 33.4963 55.15 33.0204L55.15 33.0203L55.15 33.0203C54.9717 32.5443 54.7339 32.1873 54.4367 31.8303C54.1395 31.4733 53.7234 31.2353 53.2479 31.0568ZM10.0338 31.0569C9.55822 30.8784 8.96381 30.7594 8.30995 30.7594C7.59665 30.7594 6.94279 30.9379 6.46726 31.1759C5.99173 31.4139 5.57563 31.7709 5.27843 32.1278C4.98122 32.4848 4.74345 33.0203 4.62457 33.4963C4.50569 33.9723 4.44625 34.5673 4.44625 35.1623V43.2541C4.44625 44.5036 4.74345 45.515 5.39731 46.1695C5.99173 46.824 7.00223 47.181 8.30995 47.181C9.55822 47.181 10.4498 46.824 11.1037 46.11C11.7576 45.396 12.0548 44.4441 12.1142 43.2541L10.8659 43.0756L9.61766 42.8971C9.61766 44.2061 9.14213 44.8606 8.25051 44.8606C8.01274 44.8606 7.77497 44.8011 7.59665 44.6821C7.41832 44.5631 7.29944 44.4441 7.18056 44.2656L7.00223 43.7301C6.94279 43.4921 6.94279 43.3731 6.94279 43.1946V35.0433C6.94279 34.9157 6.95986 34.7882 6.97571 34.6698C6.98943 34.5673 7.00223 34.4716 7.00223 34.3888C7.00223 34.2103 7.06167 33.9723 7.18056 33.7938C7.29944 33.6153 7.41833 33.4368 7.59665 33.3178C7.77497 33.1988 8.01274 33.1393 8.30995 33.1393C8.78548 33.1393 9.14213 33.3178 9.3799 33.6748C9.61766 34.0318 9.73655 34.5078 9.73655 35.1028L12.1736 34.5078C12.1736 33.9723 12.0548 33.4963 11.9359 33.0203C11.7576 32.5443 11.5198 32.1873 11.2226 31.8304C10.9254 31.4734 10.5093 31.2354 10.0338 31.0569ZM18.1177 34.3293L17.345 37.1852V37.1257H17.2261L16.5128 34.3888L15.5023 30.9379H12.8869L16.0373 40.3386V46.943H18.5338V40.3386L21.6248 30.9379H19.0093L18.1177 34.3293ZM28.8172 38.5537C29.5305 38.7917 30.006 39.2082 30.2438 39.8627C30.4816 40.5171 30.6599 41.2311 30.6599 42.0641C30.6599 43.7301 30.3032 44.9795 29.5899 45.753C28.8766 46.5265 27.8067 46.943 26.3206 46.943H22.9919V30.9379H26.499C27.9256 30.9379 28.9361 31.2948 29.5899 32.0683C30.2438 32.8418 30.541 33.9128 30.541 35.2813C30.541 35.9952 30.4221 36.6497 30.1843 37.1852C29.9466 37.7207 29.471 38.1372 28.8766 38.4347V38.5537H28.8172ZM28.1633 35.3408C28.1633 34.6268 28.0444 34.0913 27.7472 33.7343C27.45 33.4368 26.9745 33.2583 26.3206 33.2583H25.5479V37.4232H26.3801C27.0339 37.4232 27.5095 37.2447 27.8067 36.8877C27.985 36.5307 28.1633 35.9952 28.1633 35.3408ZM28.2822 41.8856C28.2822 41.1121 28.1633 40.5766 27.8661 40.2197C27.5689 39.8627 27.0934 39.6842 26.4395 39.6842H25.4885V44.682H26.499C26.9151 44.682 27.2123 44.6226 27.45 44.4441C27.6878 44.3251 27.8661 44.0871 27.985 43.8491C28.1039 43.6111 28.2228 43.3136 28.2228 42.9566C28.2822 42.5996 28.2822 42.2426 28.2822 41.8856ZM39.576 32.0088C38.8627 31.2948 37.8522 30.9379 36.5445 30.9379H32.8591V46.943H35.3557V40.3386H36.5445L38.6249 46.943H41.1809L38.8033 39.8032C39.5166 39.3867 39.9921 38.8512 40.2893 38.1372C40.5865 37.4232 40.7054 36.5902 40.7054 35.5788C40.7054 33.9128 40.2893 32.7228 39.576 32.0088ZM35.3557 37.9587V33.3178H36.3067C37.02 33.3178 37.4956 33.4963 37.7928 33.9128C38.09 34.3293 38.2683 34.9243 38.2683 35.6383C38.2683 36.4712 38.09 37.0662 37.7928 37.4232C37.4956 37.7802 37.02 37.9587 36.3662 37.9587H35.3557ZM42.7859 46.943V30.9379H45.2824V46.943H42.7859ZM64.601 42.3616C64.601 43.0756 64.5415 43.7301 64.4227 44.325C64.3038 44.92 64.066 45.396 63.7688 45.8125C63.4716 46.229 63.0555 46.5265 62.5205 46.7645C61.9856 47.0025 61.3911 47.1215 60.6184 47.1215C59.9051 47.1215 59.3107 47.0025 58.8351 46.824C58.3596 46.6455 57.9435 46.348 57.5869 45.991C57.2897 45.634 57.0519 45.2175 56.8736 44.7415L56.8736 44.7415C56.7547 44.2655 56.6358 43.7895 56.6358 43.2541L59.1324 42.7781C59.1918 43.3731 59.2512 43.8491 59.489 44.2655C59.6673 44.6225 60.0834 44.801 60.6778 44.801C61.0345 44.801 61.2723 44.7415 61.4506 44.6225C61.6289 44.5035 61.8072 44.325 61.8667 44.087C61.8865 44.0078 61.9128 43.9286 61.9392 43.8494L61.9393 43.8491C61.9922 43.6904 62.045 43.5317 62.045 43.3731C62.045 43.2243 62.0599 43.0756 62.0747 42.9268C62.0896 42.7781 62.1044 42.6293 62.1044 42.4806C62.1044 42.1236 62.1044 41.7666 62.045 41.5286L62.045 41.5286L62.045 41.5285C61.9855 41.2906 61.9261 41.0526 61.8072 40.8741C61.6883 40.6956 61.51 40.5171 61.2723 40.3981C61.2003 40.3621 61.1229 40.3207 61.0384 40.2754L61.0383 40.2753L61.0382 40.2753C60.8436 40.171 60.6113 40.0466 60.3212 39.9221C59.5484 39.6247 58.954 39.2677 58.4785 38.9107C58.003 38.5537 57.6463 38.1967 57.4085 37.8397C57.1708 37.4827 56.9925 37.0662 56.933 36.6497C56.8736 36.2332 56.8141 35.7572 56.8141 35.2813C56.8141 34.6268 56.8736 34.0318 57.0519 33.4963C57.2302 32.9608 57.468 32.4848 57.7652 32.1278C58.0624 31.7708 58.4785 31.4138 59.0135 31.2353C59.489 30.9974 60.0834 30.9379 60.7967 30.9379C61.5695 30.9379 62.1639 31.0569 62.6394 31.2948C63.1149 31.5328 63.531 31.8303 63.8282 32.1873C64.1255 32.5443 64.3038 32.9608 64.4227 33.4368C64.5415 33.8533 64.601 34.3293 64.601 34.7458L62.1044 35.3408C62.1044 34.7458 61.9856 34.2698 61.8072 33.9128C61.6289 33.5558 61.2128 33.3773 60.6184 33.3773C60.3212 33.3773 60.0834 33.4368 59.9051 33.5558C59.7268 33.6748 59.6079 33.8533 59.489 34.0318C59.3701 34.2103 59.3107 34.4483 59.3107 34.6863C59.2512 34.9242 59.2512 35.1622 59.2512 35.4002V35.4003V35.4003C59.2512 35.6978 59.2512 35.9358 59.3107 36.1142C59.3221 36.1486 59.3336 36.1852 59.3454 36.2231C59.3952 36.3822 59.4525 36.5651 59.5484 36.7092C59.6673 36.8877 59.9051 37.0662 60.2023 37.2447C60.3942 37.36 60.6357 37.4752 60.9108 37.6065C61.0617 37.6785 61.2227 37.7554 61.3911 37.8397C62.1044 38.1372 62.6394 38.4347 63.0555 38.7322C63.4716 39.0297 63.7688 39.3867 64.0066 39.7437C64.2443 40.1006 64.3632 40.5171 64.4227 40.9931C64.601 41.2311 64.601 41.7666 64.601 42.3616Z" fill="#0079D7"/>
<path d="M29.6496 13.1477H41.2407V9.51831H39.398V11.4223H37.5553V9.51831H35.4748V11.4223H33.6321V9.51831H31.5517V11.4223H29.709V9.51831H29.6496H27.8663H27.8069V11.4223H25.9642V9.51831H23.8837V11.4223H22.041V9.51831H19.9606V11.4223H18.1179V9.51831H16.1743V13.1477H27.8663H29.6496Z" fill="#2F80ED"/>
</svg>
