<svg width="32" height="32" viewBox="0 0 32 32" fill="none" xmlns="http://www.w3.org/2000/svg">
<path fill-rule="evenodd" clip-rule="evenodd" d="M16 32C24.8366 32 32 24.8366 32 16C32 7.16344 24.8366 0 16 0C7.16344 0 0 7.16344 0 16C0 24.8366 7.16344 32 16 32ZM19.0183 18.7328L22.2361 20.3415C23.2719 20.8596 23.9156 21.9011 23.9156 23.0592V24.0842C23.9156 25.6829 18.8478 26.1053 16.1683 26.1053C13.4887 26.1053 8.4209 25.6829 8.4209 24.0842V22.9935C8.4209 21.8806 9.02755 20.8586 10.0047 20.3254L13.0097 18.6863C13.2957 18.53 13.4735 18.2309 13.4735 17.9048V16.7902C13.2478 16.4948 12.6021 15.5742 12.2936 14.3525C11.9756 14.0975 11.7893 13.7152 11.7893 13.3053V11.9579C11.7893 11.6335 11.9106 11.3192 12.1262 11.0737V9.28201C12.1073 9.09675 12.0332 7.99359 12.8308 7.08378C13.5227 6.2949 14.6454 5.89473 16.1683 5.89473C17.6911 5.89473 18.8138 6.2949 19.5057 7.08412C20.3033 7.99393 20.2292 9.09675 20.2104 9.28201V11.0737C20.4259 11.3192 20.5472 11.6335 20.5472 11.9579V13.3053C20.5472 13.8358 20.2387 14.3057 19.7634 14.5236C19.5202 15.2313 19.1857 15.8875 18.7684 16.477C18.6845 16.5955 18.6033 16.703 18.5262 16.7973V17.9362C18.5262 18.2757 18.7148 18.5809 19.0183 18.7328Z" fill="#0079D7"/>
</svg>
